<svg version="1.1" xmlns="http://www.w3.org/2000/svg" xmlns:xlink="http://www.w3.org/1999/xlink" width="480.13344" height="360.13343" viewBox="0,0,480.13344,360.13343"><g transform="translate(29.23339,1.40005)"><g data-paper-data="{&quot;isPaintingLayer&quot;:true}" fill-rule="nonzero" stroke-linecap="butt" stroke-linejoin="miter" stroke-miterlimit="4" stroke-dasharray="" stroke-dashoffset="0" style="mix-blend-mode: normal"><path d="M-29.16667,358.66666v-359.99999h480v359.99999z" fill="#000000" stroke="#000000" stroke-width="0.13344"/><path d="M113.33872,323.82195c-2.77127,0 -5.01782,0 -5.01782,0v-39.99671c0,0 2.24656,0 5.01782,0h20.0713c2.77127,0 5.01782,0 5.01782,0v39.99671c0,0 -2.24656,0 -5.01782,0z" fill="#ffb8ae" stroke="#ff2d2b" stroke-width="1.5"/><path d="M330.36147,324.18925c-2.71055,0 -4.90789,0 -4.90789,0v-40.01708c0,0 2.19734,0 4.90789,0h19.63155c2.71055,0 4.90789,0 4.90789,0v40.01708c0,0 -2.19734,0 -4.90789,0z" fill="#ffb8ae" stroke="#ff2d2b" stroke-width="1.5"/><path d="M167.9621,101.30731c-2.76142,0 -5,0 -5,0v-18.21428c0,0 2.23858,0 5,0h29.64286c2.76142,0 5,0 5,0v18.21428c0,0 -2.23858,0 -5,0z" fill="#ffb8ae" stroke="#ff2d2b" stroke-width="1.5"/><path d="M265.99783,101.30731c-2.76142,0 -5,0 -5,0v-18.21428c0,0 2.23858,0 5,0h29.64286c2.76142,0 5,0 5,0v18.21428c0,0 -2.23858,0 -5,0z" fill="#ffb8ae" stroke="#ff2d2b" stroke-width="1.5"/><path d="M200.12357,59.30583c-2.77091,0 -5.01717,0 -5.01717,0v-7.13999c0,0 2.24626,0 5.01717,0h63.07303c2.77091,0 5.01717,0 5.01717,0v7.13999c0,0 -2.24626,0 -5.01717,0z" fill="#ffb8ae" stroke="#ff2d2b" stroke-width="1.5"/><path d="M330.10496,59.30731c-2.76142,0 -5,0 -5,0v-7.5c0,0 2.23858,0 5,0h20.71428c2.76142,0 5,0 5,0v7.5c0,0 -2.23858,0 -5,0z" fill="#ffb8ae" stroke="#ff2d2b" stroke-width="1.5"/><path d="M114.03353,59.30731c-2.76142,0 -4.99999,0 -4.99999,0v-7.5c0,0 2.23857,0 4.99999,0h20.71425c2.76142,0 4.99999,0 4.99999,0v7.5c0,0 -2.23857,0 -4.99999,0z" fill="#ffb8ae" stroke="#ff2d2b" stroke-width="1.5"/><path d="M327.4197,157.0549c0.66237,0 1.29162,0.10718 1.86914,0.29102c0.11712,-0.01613 0.23717,-0.02734 0.35742,-0.02734c1.97621,0 3.5664,2.23 3.5664,5v28.84375c0,2.77 -1.59019,5 -3.5664,5c-1.97622,0 -3.56836,-2.23 -3.56836,-5v-26.17969h-27.76367c-2.77,0 -5,-1.76905 -5,-3.96485c0,-2.19579 2.23,-3.96289 5,-3.96289z" fill="#ffb8ae" stroke="#ff2d2b" stroke-width="1.88976"/><path d="M133.69118,156.54905c0.09051,-0.00384 0.17582,-0.02149 0.26758,-0.02149h30.95703c2.77,0 5,1.76709 5,3.96289c0,2.1958 -2.23,3.96289 -5,3.96289h-27.23633v27.50195c0,2.77 -1.94595,5 -4.36133,5c-2.41538,0 -4.35937,-2.23 -4.35937,-5v-30.42773c0,-0.17979 0.02894,-0.35061 0.04492,-0.52539c-0.02713,-0.16784 -0.04492,-0.33785 -0.04492,-0.51172c0,-1.25993 0.7493,-2.36486 1.89844,-3.08984c0.06985,-0.05481 0.14797,-0.09437 0.2207,-0.14453c0.03339,-0.01869 0.06171,-0.0425 0.0957,-0.06055c0.63521,-0.41355 1.35905,-0.66797 2.14453,-0.66797c0.12592,0 0.2499,0.0096 0.37305,0.02149z" fill="#ffb8ae" stroke="#ff2d2b" stroke-width="1.88976"/><path d="M235.18141,87.54123v38.07032h28.29297c2.77,0 5,1.53252 5,3.43554c0,1.90303 -2.23,3.4336 -5,3.4336h-32.125h-31.0664c-2.77,0 -5,-1.53057 -5,-3.4336c0,-1.90302 2.23,-3.43554 5,-3.43554h27.23632v-38.07032c0,-2.77 1.70748,-5 3.83008,-5c2.12261,0 3.83203,2.23 3.83203,5z" fill="#ffb8ae" stroke="#ff2d2b" stroke-width="1.88976"/><path d="M138.2068,87.01194v37.54296h27.50196c2.77,0 5,1.88438 5,4.22657c0,2.34218 -2.23,4.22851 -5,4.22851h-32.27735c-2.77,0 -5,-1.88633 -5,-4.22851c0,-0.45754 0.10608,-0.88874 0.26368,-1.30078v-40.46875c0,-2.77 2.1209,-5 4.75585,-5c2.63496,0 4.75586,2.23 4.75586,5z" fill="#ffb8ae" stroke="#ff2d2b" stroke-width="1.88976"/><path d="M333.47634,87.01194v40.46875c0,0.142 -0.02844,0.27512 -0.03907,0.41406c0.02333,0.1611 0.03907,0.32383 0.03907,0.49023c0,1.55313 -1.05584,2.88348 -2.60352,3.57813c-0.61197,0.32206 -1.29073,0.51758 -2.01953,0.51758c-0.07642,0 -0.15107,-0.0078 -0.22656,-0.01172c-0.05108,0.00125 -0.09894,0.01172 -0.15039,0.01172h-30.95508c-2.77,0 -5,-1.82672 -5,-4.09571c0,-2.26899 2.23,-4.0957 5,-4.0957h26.70703v-37.27734c0,-2.77 2.06324,-5 4.625,-5c2.56175,0 4.62305,2.23 4.62305,5z" fill="#ffb8ae" stroke="#ff2d2b" stroke-width="1.88976"/><path d="M170.14821,193.35764v26.01562h29.00586c2.77,0 5,1.83214 5,4.10938c0,2.27724 -2.23,4.11133 -5,4.11133h-31.56055c-0.48005,0.23799 -1.00463,0.37304 -1.55664,0.37304c-0.55201,0 -1.07463,-0.13505 -1.55468,-0.37304h-30.43946c-2.77,0 -5,-1.83409 -5,-4.11133c0,-2.27724 2.23,-4.10938 5,-4.10938h27.88477v-26.01562c0,-2.77 1.83213,-5 4.10937,-5c2.27724,0 4.11133,2.23 4.11133,5z" fill="#ffb8ae" stroke="#ff2d2b" stroke-width="1.88976"/><path d="M300.00381,194.10493v26.01562h29.00586c2.77,0 5,1.83213 5,4.10937c0,2.27724 -2.23,4.11133 -5,4.11133h-31.56055c-0.48005,0.23811 -1.00463,0.37304 -1.55664,0.37304c-0.55201,0 -1.07463,-0.13493 -1.55468,-0.37304h-30.43946c-2.77,0 -5,-1.83409 -5,-4.11133c0,-2.27724 2.23,-4.10937 5,-4.10937h27.88477v-26.01562c0,-2.77002 1.83213,-5.00001 4.10937,-5.00001c2.27724,0 4.11133,2.23 4.11133,5.00001z" fill="#ffb8ae" stroke="#ff2d2b" stroke-width="1.5"/><path d="M134.04296,260.4782c-2.76142,0 -5,0 -5,0v-8.96845c0,0 2.23858,0 5,0h31.47908c2.76142,0 5,0 5,0v8.96845c0,0 -2.23858,0 -5,0z" fill="#ffb8ae" stroke="#ff2d2b" stroke-width="1.5"/><path d="M235.54274,224.37326v27.13672h27.88477c2.77,0 5,1.91613 5,4.29688c0,2.38075 -2.23,4.29687 -5,4.29687h-32.18164h-31.8086c-2.77,0 -5,-1.91612 -5,-4.29687c0,-2.38075 2.23,-4.29688 5,-4.29688h27.51172v-27.13672c0,-2.77 1.91613,-5 4.29688,-5c2.38075,0 4.29687,2.23 4.29687,5z" fill="#ffb8ae" stroke="#ff2d2b" stroke-width="1.88976"/><path d="M296.78294,260.1046c-2.76142,0 -5,0 -5,0v-8.96845c0,0 2.23858,0 5,0h31.47908c2.76142,0 5,0 5,0v8.96845c0,0 -2.23858,0 -5,0z" fill="#ffb8ae" stroke="#ff2d2b" stroke-width="1.5"/><path d="M235.5431,288.46046v27.1367h27.88477c2.77,0 5,1.91614 5,4.29687c0,2.38076 -2.23,4.29687 -5,4.29687h-32.18164h-31.8086c-2.77,0 -5,-1.91611 -5,-4.29687c0,-2.38072 2.23,-4.29687 5,-4.29687h27.51172v-27.1367c0,-2.77002 1.91613,-5.00001 4.29688,-5.00001c2.38075,0 4.29687,2.23 4.29687,5.00001z" fill="#ffb8ae" stroke="#ff2d2b" stroke-width="1.5"/><path d="M166.67555,283.28732c0.0544,-0.00162 0.10533,-0.01368 0.16016,-0.01368h31.66211c2.71897,0 4.9082,2.00012 4.9082,4.48438c0,2.48426 -2.18923,4.48437 -4.9082,4.48437h-27.60156v25.73243c0,2.71897 -2.00012,4.9082 -4.48438,4.9082c-2.48426,0 -4.48437,-2.18923 -4.48437,-4.9082v-29.79493c0,-0.05494 0.01205,-0.10566 0.01367,-0.16015c-0.00548,-0.08722 -0.01367,-0.1732 -0.01367,-0.26172c0,-1.14681 0.48026,-2.17941 1.25,-2.9707c0.04126,-0.04711 0.08206,-0.0934 0.125,-0.13868c0.04527,-0.04294 0.09156,-0.08374 0.13867,-0.125c0.7913,-0.76973 1.8239,-1.25 2.9707,-1.25c0.08918,0 0.17581,0.00811 0.26367,0.01368z" fill="#ffb8ae" stroke="#ff2d2b" stroke-width="1.88976"/><path d="M296.77712,283.27364c2.71897,0 4.9082,2.16614 4.9082,4.85743c0,0.94382 -0.28117,1.81464 -0.74805,2.55859v28.78125c0,2.71897 -1.99816,4.9082 -4.48242,4.9082c-2.48426,0 -4.48437,-2.18923 -4.48437,-4.9082v-26.48242h-27.23047c-2.71897,0 -4.90625,-2.16614 -4.90625,-4.85742c0,-2.69129 2.18728,-4.85743 4.90625,-4.85743z" fill="#ffb8ae" stroke="#ff2d2b" stroke-width="1.88976"/><path d="M384.06423,26.81663v55.07617c0,0.08161 -0.00806,0.15767 -0.00977,0.23828h0.07031v4.66992h-22.32812v8.97852h23.10547v5.86719h-27.17578v-0.6582h-0.1211v-14.1875v-4.66992h22.16016c-0.00171,-0.08061 -0.00977,-0.15667 -0.00977,-0.23828v-54.78906c-0.38484,0.04347 -0.78175,0.07422 -1.19726,0.07422h-78.74414c0.57815,0.83572 0.9375,1.87869 0.9375,3.03125v24.18945c0,2.71897 -1.91613,4.9082 -4.29688,4.9082c-2.38075,0 -4.29883,-2.18923 -4.29883,-4.9082v-24.18945c0,-1.15256 0.35935,-2.19553 0.9375,-3.03125h-123.13476c0.57815,0.83572 0.9375,1.87869 0.9375,3.03125v24.18945c0,2.71897 -1.91808,4.9082 -4.29883,4.9082c-2.38075,0 -4.29688,-2.18923 -4.29688,-4.9082v-24.18945c0,-1.15256 0.35935,-2.19553 0.9375,-3.03125h-79.44335c-0.19669,0 -0.3837,-0.01534 -0.57422,-0.02539v54.91406c0,0.186 -0.01736,0.36245 -0.02734,0.54297h22.03321v0.24023h0.47851v14.00781v4.31055h-3.95117h-23.22656v-4.31055h23.22656v-9.69727h-23.58594v-4.55078h0.16992c-0.00998,-0.18051 -0.02734,-0.35697 -0.02734,-0.54297v-55.03125c0,-2.71897 1.09496,-4.9082 2.45508,-4.9082c0.48444,0 0.93283,0.28716 1.3125,0.76758c0.53575,-0.09014 1.10977,-0.14648 1.7168,-0.14648h294.76367c0.72907,0 1.41425,0.07551 2.03515,0.20312c0.36448,-0.64349 0.81748,-1.04102 1.31641,-1.04102c1.1939,0 2.1543,2.18728 2.1543,4.90625z" fill="#ffb8ae" stroke="#ff2d2b" stroke-width="1.88976"/><path d="M361.55641,125.56076h23.13672v3.77149h-23.13672v62.34765h23.4668v5.38672h-27.29687v-5.38672h0.11914v-62.34765v-3.77149z" fill="#ffb8ae" stroke="#ff2d2b" stroke-width="1.88976"/><path d="M104.74587,219.81467v4.19141h-0.11914v32.56445v3.47266h-3.47266h-17.95703v87.63867h296.67773v-87.40039h-18.31836h-4.54882v-4.18946v-36.1582h0.71875h3.83007h23.22657v4.42969h-23.22657v31.72851h22.50782v0.11914h0.12109v91.47071v3.94922h-4.31055h-296.67773h-3.47266h-0.24023v-3.94922h0.24023v-87.63867v-3.47266h3.47266h17.95703v-32.56445h-22.74609v-4.19141z" fill="#ffb8ae" stroke="#ff2d2b" stroke-width="1.88976"/><path d="M105.22634,124.87326v0.71875v3.71094v63.0957v3.94922h-4.07227h-22.74609v-3.94922h22.74609v-63.0957h-22.62695v-4.42969z" fill="#ffb8ae" stroke="#ff2d2b" stroke-width="1.88976"/><path d="M268.05055,156.71897v3.71289h-0.23828v32.32422v4.31054h-68.96093h-4.31055v-36.27539v-3.71289h26.09961v3.71289h-21.78906v31.96485h65.36914v-32.32422h-22.38868v-3.71289z" fill="#ffb8ae" stroke="#ff2d2b" stroke-width="1.88976"/></g></g></svg>